<?xml version="1.0" ?><!DOCTYPE svg  PUBLIC '-//W3C//DTD SVG 1.1//EN'  'http://www.w3.org/Graphics/SVG/1.1/DTD/svg11.dtd'><svg enable-background="new 0 0 512 512" height="512px" id="CSS_Extention_1_" version="1.1" viewBox="0 0 512 512" width="512px" xml:space="preserve" xmlns="http://www.w3.org/2000/svg" xmlns:xlink="http://www.w3.org/1999/xlink"><g id="Rectangle_2_8_"><g><polygon fill="#C8C6C6" points="386,25 134,25 134,485 481,485 481,120.604   "/></g></g><g id="Rectangle_4_8_"><g><polygon fill="#E6E6E6" points="387,25 387,120 481,120   "/></g></g><g id="_x3C__x2F__x3E__1_"><g><path d="M183.813,331.611l87.21-59.884v25.992l-63.954,41.791v0.509l63.954,41.536v25.737l-87.21-59.883V331.611z" fill="#7F7F7F"/><path d="M281.2,417.486l42.515-183.982h15.625l-42.696,183.982H281.2z" fill="#7F7F7F"/><path d="M437.451,350.723l-87.209,56.57v-25.228l69.768-42.3v-0.51l-69.768-42.301v-25.228l87.209,56.57V350.723z" fill="#7F7F7F"/></g></g><g id="Rectangle_1_8_"><g><rect fill="#2E372E" height="108" width="326" x="30" y="48"/></g></g><g id="CSS"><g><path d="M170.436,133.531c-2.506,1.429-8.144,2.961-15.482,2.961c-20.852,0-31.591-14.806-31.591-34.412    c0-23.486,14.677-36.556,32.933-36.556c7.07,0,12.439,1.634,14.856,3.063l-2.774,12.355c-2.774-1.327-6.622-2.553-11.455-2.553    c-10.829,0-19.241,7.454-19.241,22.771c0,13.785,7.159,22.464,19.331,22.464c4.117,0,8.681-1.021,11.365-2.246L170.436,133.531z" fill="#84E403"/><path d="M178.046,119.439c3.669,2.145,9.307,4.289,15.125,4.289c6.264,0,9.576-2.961,9.576-7.454    c0-4.289-2.864-6.74-10.113-9.701c-10.023-3.982-16.556-10.313-16.556-20.32c0-11.743,8.591-20.729,22.821-20.729    c6.801,0,11.813,1.634,15.393,3.472l-3.043,12.56c-2.416-1.328-6.712-3.268-12.618-3.268c-5.907,0-8.771,3.063-8.771,6.637    c0,4.391,3.401,6.331,11.187,9.701c10.65,4.493,15.661,10.824,15.661,20.524c0,11.539-7.786,21.341-24.342,21.341    c-6.891,0-13.692-2.042-17.093-4.187L178.046,119.439z" fill="#84E403"/><path d="M224.585,119.439c3.669,2.145,9.307,4.289,15.124,4.289c6.265,0,9.576-2.961,9.576-7.454    c0-4.289-2.864-6.74-10.113-9.701c-10.023-3.982-16.556-10.313-16.556-20.32c0-11.743,8.591-20.729,22.82-20.729    c6.802,0,11.813,1.634,15.393,3.472l-3.043,12.56c-2.416-1.328-6.712-3.268-12.618-3.268c-5.907,0-8.771,3.063-8.771,6.637    c0,4.391,3.401,6.331,11.187,9.701c10.649,4.493,15.661,10.824,15.661,20.524c0,11.539-7.786,21.341-24.342,21.341    c-6.891,0-13.692-2.042-17.093-4.187L224.585,119.439z" fill="#84E403"/></g></g></svg>