<svg id="day" xmlns="http://www.w3.org/2000/svg" viewBox="0 0 220 220"><defs><style>.cls-1{fill:#81d1e6;}.cls-2{fill:none;}.cls-3{fill:#fff;}.cls-4{fill:#fdd52c;}.cls-5{fill:#291b4f;}</style></defs><title>icon_bgwt-day</title><rect class="cls-1" x="21" y="21" width="178" height="116.65"/><path class="cls-2" d="M20,84V198H191V84H20Z"/><polygon class="cls-3" points="15 73 15 196 139 196 15 73"/><polygon class="cls-4" points="81 138 138 80 195 80 138 138 198 196 139 196 81 138"/><polygon class="cls-3" points="199 139 138 139 199 196 199 139"/><polygon class="cls-5" points="129 196 13 79 21 71 80 129 131 77 206 77 145 137 199 137 199 148 137 148 128 139 176 90 136 90 88 138 147 196 129 196"/></svg>